PathFileType	4	(X/Y/Z)	Walk8.trc
DataRate	CameraRate	NumFrames	NumMarkers	Units	OrigDataRate	OrigDataStartFrame	OrigNumFrames
200.000000	200.000000	7	59	mm	200.000000	275	625
Frame#	Times		LFHD		RFHD		CLAV		STRN		LASI		RASI		RACR1		RUA1		RElbow		RFA1		RWRR		RWRU		RCAR		LACR1		LUA1		LElbow		LFA1		LWRR		RTB1		RTB2		LTH1		LTH3		LTH2		LMFC		LTB1		LTB2		LMT1		RTH2		LTB4		LLFC		LCAR		LWRU		LTB3		LMT5		LToe		RTB4		RTH3		RTB3		RMFC		LTH4		RTH1		RTH4		RMMAL		RBHD		RElbowM		RLFC		RToe		RBack		RMT1		RCAL		LLMAL		LElbowM		LMMAL		RPSI		C7		T10		LPSI		LBHD		LCAL
			X1	Y1	Z1	X2	Y2	Z2	X3	Y3	Z3	X4	Y4	Z4	X5	Y5	Z5	X6	Y6	Z6	X7	Y7	Z7	X8	Y8	Z8	X9	Y9	Z9	X10	Y10	Z10	X11	Y11	Z11	X12	Y12	Z12	X13	Y13	Z13	X14	Y14	Z14	X15	Y15	Z15	X16	Y16	Z16	X17	Y17	Z17	X18	Y18	Z18	X19	Y19	Z19	X20	Y20	Z20	X21	Y21	Z21	X22	Y22	Z22	X23	Y23	Z23	X24	Y24	Z24	X25	Y25	Z25	X26	Y26	Z26	X27	Y27	Z27	X28	Y28	Z28	X29	Y29	Z29	X30	Y30	Z30	X31	Y31	Z31	X32	Y32	Z32	X33	Y33	Z33	X34	Y34	Z34	X35	Y35	Z35	X36	Y36	Z36	X37	Y37	Z37	X38	Y38	Z38	X39	Y39	Z39	X40	Y40	Z40	X41	Y41	Z41	X42	Y42	Z42	X43	Y43	Z43	X44	Y44	Z44	X45	Y45	Z45	X46	Y46	Z46	X47	Y47	Z47	X48	Y48	Z48	X49	Y49	Z49	X50	Y50	Z50	X51	Y51	Z51	X52	Y52	Z52	X53	Y53	Z53	X54	Y54	Z54	X55	Y55	Z55	X56	Y56	Z56	X57	Y57	Z57	X58	Y58	Z58	X59	Y59	Z59

275	1.375	-507.6	1639	100.8	-506.4	1629.4	1.1841	-496.51	1374.3	75.729	-429.05	1217.8	81.299	-527.25	954.77	-87.999	-554.63	967.43	279.21	-620.29	1459.9	241.5	-615.52	1298.7	369.29	-567.2	1165.6	434.2	-474.93	1047.5	437.35	-412.76	951.35	359.71	-409.76	954.96	441.28	-347.38	893.67	401.79	-611.19	1438.4	-109.33	-682.94	1278.1	-193.3	-738.67	1121.2	-235.3	-751.57	980.42	-241.7	-730.38	850.6	-177.32	-747.1	341.73	185.25	-811.17	272.07	231.48	-523.42	739.7	-118.67	-445.66	588.63	-92.018	-436.18	693.31	-85.974	-401.85	508.83	66.078	-318.37	426.14	-39.91	-320.36	327.48	-74.58	-117.78	115.91	-14.166	-645.58	666.73	275.3	-288.14	348.69	-25.865	-431.58	507.3	-89.306	-747.77	760.15	-201.79	-781.38	842.21	-231.75	-263.71	265.71	-12.448	-169.3	69.645	-76.464	-85.516	139.34	-58.191	-790.85	267.07	174.05	-716.35	589.36	273.3	-834.26	193.7	162.12	-755.86	483.14	105.19	-485.69	664.79	-106.63	-690.24	758.13	298.07	-702.82	673.15	285.6	-927.55	90.612	96.625	-652.2	1543.2	-4.5271	-605.79	1075	344.36	-761.71	477.31	259.89	-769.48	24.92	177.85	-755.1	1329.9	186.33	-817.62	23.788	139.56	-1031.2	77.617	130.9	-281.72	82.831	-7.4225	-809.69	1087.4	-136.81	-249.93	106.48	71.9	-799.08	1007.2	99.597	-692.82	1451	70.774	-750.75	1134.6	64.86	-779.53	997.63	20.321	-640.53	1561.9	141.26	-303.74	36.531	55.665
276	1.38	-500.77	1637.9	99.19	-499.51	1628.2	-0.41922	-489.46	1373.2	74.468	-421.89	1216.7	80.512	-519.39	953.53	-88.184	-547.5	966.69	278.33	-613.56	1459.2	239.91	-608.66	1298.2	368.02	-560.41	1165.3	433.16	-467.82	1047.6	436.34	-405.32	951.64	358.65	-402.31	955.26	440.22	-339.72	894.23	400.7	-604	1436.8	-110.83	-675.84	1276.4	-194.43	-731.75	1119.4	-236.16	-744.75	978.66	-242.3	-723.66	848.97	-177.65	-743.87	341.03	185.21	-808.71	272.07	231.39	-514.57	739.42	-118.69	-436.81	588.38	-92.059	-427.4	693.07	-85.749	-393.88	508.2	65.833	-310.46	424.8	-39.279	-313.2	326.2	-74.105	-113.87	111.55	-12.452	-640.42	665.74	275.3	-281.19	347.03	-25.08	-422.72	507.03	-89.595	-741.12	758.47	-201.91	-774.67	840.5	-232.1	-257.86	263.77	-11.532	-165.87	66.572	-75.209	-80.972	134.69	-55.996	-788.34	266.79	174.02	-711.58	588.71	273.06	-832.47	193.87	162.05	-750.92	482.51	104.98	-476.86	664.53	-106.54	-684.72	757.37	297.84	-697.66	672.44	285.36	-926.71	91.682	96.573	-645.24	1542	-6.135	-598.6	1074.6	343.31	-757.58	476.94	259.71	-769.4	24.869	177.92	-748.26	1328.9	184.88	-817.54	23.79	139.62	-1030.5	79.731	130.77	-278.22	81.262	-7.0391	-802.81	1085.8	-137.62	-246.68	104.25	72.657	-791.86	1006	98.853	-685.91	1449.7	69.107	-743.49	1133.3	64.273	-772.12	996.31	19.757	-633.66	1560.8	139.6	-301.5	35.584	55.885
277	1.385	-493.91	1636.9	97.535	-492.59	1627.1	-2.0713	-482.38	1372.1	73.16	-414.68	1215.8	79.68	-511.54	952.34	-88.4	-540.27	965.98	277.39	-606.79	1458.5	238.29	-601.79	1297.8	366.72	-553.67	1165	432.08	-460.79	1047.7	435.29	-397.98	951.92	357.57	-394.97	955.55	439.13	-332.18	894.77	399.58	-596.8	1435.1	-112.37	-668.69	1274.6	-195.58	-724.75	1117.7	-237.04	-737.84	976.88	-242.93	-716.8	847.29	-178.04	-740.51	340.36	185.17	-806.14	272.13	231.31	-505.78	739.21	-118.71	-428.04	588.18	-92.137	-418.65	692.88	-85.61	-386.05	507.59	65.528	-302.63	423.5	-38.714	-306.17	324.97	-73.691	-110.19	106.99	-10.843	-635.14	664.77	275.27	-274.35	345.41	-24.358	-413.96	506.82	-89.926	-734.3	756.76	-202.11	-767.82	838.76	-232.49	-252.16	261.85	-10.692	-162.77	63.369	-74.016	-76.665	129.75	-53.894	-785.74	266.56	174	-706.67	588.07	272.8	-830.59	194.1	161.99	-745.82	481.87	104.77	-468.1	664.32	-106.47	-679.11	756.64	297.57	-692.38	671.76	285.08	-925.8	92.854	96.542	-638.25	1540.7	-7.7967	-591.49	1074.2	342.23	-753.29	476.59	259.52	-769.32	24.82	177.98	-741.39	1328	183.41	-817.46	23.789	139.67	-1029.8	82.011	130.66	-274.99	79.786	-6.7097	-795.84	1084.2	-138.44	-243.63	102.08	73.348	-784.59	1004.9	98.111	-678.96	1448.5	67.394	-736.21	1132.1	63.732	-764.68	995.07	19.203	-626.77	1559.7	137.88	-299.57	34.841	56.072
278	1.39	-487.04	1636	95.832	-485.64	1626.1	-3.7697	-475.25	1371.1	71.808	-407.43	1214.9	78.804	-503.69	951.23	-88.644	-532.96	965.3	276.39	-599.96	1457.9	236.63	-594.92	1297.5	365.39	-546.96	1164.8	430.97	-453.83	1047.8	434.2	-390.75	952.19	356.45	-387.74	955.83	438.01	-324.78	895.29	398.44	-589.57	1433.5	-113.95	-661.49	1272.9	-196.75	-717.67	1115.9	-237.93	-730.81	975.07	-243.59	-709.81	845.59	-178.48	-737.03	339.72	185.13	-803.45	272.25	231.23	-497.05	739.07	-118.76	-419.37	588.05	-92.267	-409.96	692.73	-85.569	-378.36	507.03	65.155	-294.9	422.27	-38.236	-299.26	323.81	-73.354	-106.72	102.27	-9.3712	-629.73	663.85	275.21	-267.62	343.85	-23.722	-405.32	506.69	-90.307	-727.32	755.04	-202.41	-760.85	837	-232.92	-246.58	260.01	-9.9499	-159.97	60.081	-72.912	-72.568	124.59	-51.926	-783.02	266.37	173.99	-701.62	587.46	272.52	-828.62	194.4	161.94	-740.55	481.24	104.55	-459.42	664.18	-106.43	-673.38	755.93	297.28	-686.97	671.1	284.78	-924.83	94.133	96.537	-631.23	1539.6	-9.5089	-584.47	1073.8	341.13	-748.83	476.26	259.32	-769.24	24.773	178.03	-734.47	1327.1	181.93	-817.39	23.783	139.71	-1028.9	84.466	130.59	-271.97	78.436	-6.4383	-788.77	1082.6	-139.27	-240.73	100.03	73.963	-777.26	1003.8	97.373	-671.98	1447.4	65.641	-728.89	1130.9	63.239	-757.22	993.93	18.654	-619.86	1558.7	136.11	-297.86	34.331	56.228
279	1.395	-480.14	1635.1	94.085	-478.66	1625.1	-5.5115	-468.08	1370.2	70.416	-400.12	1214.1	77.887	-495.85	950.21	-88.912	-525.56	964.66	275.34	-593.09	1457.3	234.94	-588.06	1297.2	364.03	-540.28	1164.7	429.83	-446.95	1048	433.09	-383.63	952.46	355.31	-380.63	956.1	436.88	-317.51	895.77	397.27	-582.32	1431.9	-115.56	-654.24	1271.1	-197.93	-710.5	1114.1	-238.85	-723.68	973.25	-244.28	-702.68	843.87	-178.96	-733.4	339.1	185.08	-800.62	272.44	231.15	-488.41	739.01	-118.83	-410.79	587.99	-92.463	-401.35	692.67	-85.635	-370.79	506.55	64.708	-287.24	421.11	-37.868	-292.46	322.75	-73.108	-103.42	97.466	-8.0597	-624.18	662.96	275.12	-260.98	342.38	-23.19	-396.78	506.63	-90.748	-720.17	753.31	-202.8	-753.75	835.22	-233.4	-241.11	258.25	-9.3219	-157.44	56.756	-71.919	-68.661	119.24	-50.126	-780.19	266.25	173.99	-696.42	586.87	272.23	-826.55	194.78	161.9	-735.1	480.62	104.33	-450.83	664.12	-106.43	-667.54	755.25	296.95	-681.43	670.46	284.45	-923.77	95.525	96.563	-624.17	1538.5	-11.268	-577.52	1073.5	340.01	-744.19	475.96	259.12	-769.17	24.728	178.07	-727.52	1326.4	180.45	-817.32	23.771	139.75	-1028	87.105	130.54	-269.13	77.238	-6.2305	-781.59	1081	-140.12	-237.92	98.132	74.49	-769.88	1002.7	96.643	-664.96	1446.3	63.851	-721.56	1129.8	62.797	-749.74	992.89	18.11	-612.93	1557.8	134.29	-296.33	34.068	56.347
280	1.4	-473.23	1634.4	92.296	-471.66	1624.2	-7.2932	-460.88	1369.3	68.988	-392.78	1213.4	76.928	-488.03	949.28	-89.204	-518.08	964.05	274.26	-586.15	1456.9	233.24	-581.19	1297	362.66	-533.63	1164.6	428.65	-440.14	1048.1	431.95	-376.63	952.72	354.14	-373.64	956.37	435.72	-310.38	896.21	396.08	-575.06	1430.3	-117.19	-646.93	1269.3	-199.12	-703.23	1112.3	-239.77	-716.44	971.42	-245	-695.42	842.12	-179.49	-729.62	338.53	185.04	-797.66	272.68	231.09	-479.87	739.06	-118.95	-402.32	588.03	-92.744	-392.82	692.69	-85.815	-363.32	506.16	64.18	-279.67	420.05	-37.624	-285.76	321.79	-72.966	-100.27	92.627	-6.9208	-618.49	662.12	275	-254.43	341.01	-22.776	-388.36	506.68	-91.259	-712.86	751.58	-203.27	-746.52	833.43	-233.92	-235.73	256.61	-8.8204	-155.15	53.447	-71.058	-64.934	113.79	-48.512	-777.23	266.19	173.99	-691.04	586.31	271.92	-824.36	195.24	161.88	-729.49	480	104.12	-442.35	664.15	-106.5	-661.57	754.61	296.59	-675.74	669.86	284.09	-922.63	97.036	96.624	-617.08	1537.4	-13.068	-570.65	1073.3	338.86	-739.36	475.68	258.92	-769.1	24.683	178.09	-720.53	1325.7	178.97	-817.25	23.75	139.78	-1026.9	89.939	130.54	-266.44	76.205	-6.0933	-774.32	1079.3	-140.97	-235.19	96.405	74.921	-762.46	1001.7	95.927	-657.9	1445.3	62.031	-714.21	1128.9	62.406	-742.24	991.96	17.568	-605.97	1557	132.42	-294.92	34.048	56.419
281	1.405	-466.29	1633.7	90.468	-464.63	1623.4	-9.1109	-453.63	1368.5	67.53	-385.39	1212.7	75.93	-480.24	948.47	-89.524	-510.53	963.47	273.15	-579.17	1456.5	231.52	-574.31	1296.9	361.26	-527.01	1164.5	427.45	-433.42	1048.3	430.78	-369.74	952.97	352.95	-366.77	956.62	434.54	-303.38	896.63	394.88	-567.78	1428.7	-118.85	-639.56	1267.6	-200.31	-695.88	1110.5	-240.71	-709.09	969.6	-245.74	-688.02	840.37	-180.07	-725.68	338	185.01	-794.53	273	231.05	-471.44	739.23	-119.12	-393.95	588.18	-93.125	-384.38	692.82	-86.116	-355.94	505.89	63.568	-272.18	419.08	-37.512	-279.17	320.94	-72.934	-97.273	87.819	-5.9552	-612.64	661.33	274.84	-247.97	339.75	-22.488	-380.05	506.82	-91.849	-705.38	749.85	-203.83	-739.15	831.64	-234.48	-230.44	255.1	-8.4511	-153.08	50.204	-70.346	-61.385	108.29	-47.088	-774.14	266.2	174.01	-685.48	585.77	271.6	-822.06	195.79	161.88	-723.69	479.4	103.91	-433.98	664.29	-106.65	-655.45	754	296.19	-669.88	669.28	283.71	-921.38	98.671	96.727	-609.96	1536.5	-14.907	-563.84	1073.2	337.68	-734.32	475.43	258.74	-769.05	24.639	178.09	-713.5	1325.1	177.49	-817.2	23.72	139.79	-1025.8	92.977	130.58	-263.87	75.338	-6.0325	-766.94	1077.6	-141.84	-232.54	94.862	75.247	-754.99	1000.7	95.233	-650.81	1444.4	60.189	-706.86	1128	62.067	-734.73	991.16	17.029	-598.99	1556.3	130.51	-293.61	34.252	56.434
